{"title":"NikitA - Avocado [Explicit] 1080p [Sbyky]","uid":10914120,"size":72318065,"categoryP":"video","categoryS":"music_videos","magnet":"?xt=urn:btih:c3d2a688e126fec9fb6e5e553f58dfab7b4dd05e&amp;dn=NikitA+-+Avocado+%5BExplicit%5D+1080p+%5BSbyky%5D&amp;tr=udp%3A%2F%2Ftracker.openbittorrent.com%3A80&amp;tr=udp%3A%2F%2Fopen.demonii.com%3A1337&amp;tr=udp%3A%2F%2Ftracker.coppersurfer.tk%3A6969&amp;tr=udp%3A%2F%2Fexodus.desync.com%3A6969","seeders":1,"leechers":0,"uploader":"Sbyky","files":1,"time":1409287978,"description":"\n\nGeneral\nComplete name                            : NikitA - Avocado [Explicit] 1080p [Sbyky].mp4\nFormat                                   : MPEG-4\nFormat profile                           : Base Media\nCodec ID                                 : isom\nFile size                                : 69.0 MiB\nDuration                                 : 3mn 3s\nOverall bit rate mode                    : Variable\nOverall bit rate                         : 3 155 Kbps\nEncoded date                             : UTC 2014-01-07 00:29:22\nTagged date                              : UTC 2014-01-07 00:29:22\n\nVideo\nID                                       : 1\nFormat                                   : AVC\nFormat/Info                              : Advanced Video Codec\nFormat profile                           : &lt;a class=&quot;__cf_email__&quot; href=&quot;/cdn-cgi/l/email-protection&quot; data-cfemail=&quot;bbf3d2dcd3fbf78f958b&quot;&gt;[email&amp;#160;protected]&lt;/a&gt;&lt;script cf-hash='f9e31' type=&quot;text/javascript&quot;&gt;\n/* &lt;![CDATA[ */!function(){try{var t=&quot;currentScript&quot;in document?document.currentScript:function(){for(var t=document.getElementsByTagName(&quot;script&quot;),e=t.length;e--;)if(t[e].getAttribute(&quot;cf-hash&quot;))return t[e]}();if(t&amp;&amp;t.previousSibling){var e,r,n,i,c=t.previousSibling,a=c.getAttribute(&quot;data-cfemail&quot;);if(a){for(e=&quot;&quot;,r=parseInt(a.substr(0,2),16),n=2;a.length-n;n+=2)i=parseInt(a.substr(n,2),16)^r,e+=String.fromCharCode(i);e=document.createTextNode(e),c.parentNode.replaceChild(e,c)}}}catch(u){}}();/* ]]&gt; */&lt;/script&gt;\nFormat settings, CABAC                   : Yes\nFormat settings, ReFrames                : 3 frames\nCodec ID                                 : avc1\nCodec ID/Info                            : Advanced Video Coding\nDuration                                 : 3mn 3s\nBit rate                                 : 3 029 Kbps\nWidth                                    : 1 920 pixels\nHeight                                   : 1 080 pixels\nDisplay aspect ratio                     : 16:9\nFrame rate mode                          : Constant\nFrame rate                               : 25.000 fps\nColor space                              : YUV\nChroma subsampling                       : 4:2:0\nBit depth                                : 8 bits\nScan type                                : Progressive\nBits/(Pixel*Frame)                       : 0.058\nStream size                              : 66.2 MiB (96%)\nEncoded date                             : UTC 2014-01-07 00:29:22\nTagged date                              : UTC 2014-01-07 00:29:22\n\nAudio\nID                                       : 2\nFormat                                   : AAC\nFormat/Info                              : Advanced Audio Codec\nFormat profile                           : LC\nCodec ID                                 : 40\nDuration                                 : 3mn 3s\nBit rate mode                            : Variable\nBit rate                                 : 126 Kbps\nChannel(s)                               : 2 channels\nChannel positions                        : Front: L R\nSampling rate                            : 44.1 KHz\nCompression mode                         : Lossy\nStream size                              : 2.74 MiB (4%)\nEncoded date                             : UTC 2014-01-07 00:28:04\nTagged date                              : UTC 2014-01-07 00:28:04\n\nShared By Sbyky\n","torrent":{"xt":"urn:btih:c3d2a688e126fec9fb6e5e553f58dfab7b4dd05e","amp;dn":"NikitA+-+Avocado+%5BExplicit%5D+1080p+%5BSbyky%5D","amp;tr":["udp%3A%2F%2Ftracker.openbittorrent.com%3A80","udp%3A%2F%2Fopen.demonii.com%3A1337","udp%3A%2F%2Ftracker.coppersurfer.tk%3A6969","udp%3A%2F%2Fexodus.desync.com%3A6969"],"infoHash":"c3d2a688e126fec9fb6e5e553f58dfab7b4dd05e","infoHashBuffer":{"type":"Buffer","data":[195,210,166,136,225,38,254,201,251,110,94,85,63,88,223,171,123,77,208,94]},"announce":[],"urlList":[]}}